<svg width="42" height="34" viewBox="0 0 42 34" fill="none" xmlns="http://www.w3.org/2000/svg">
<path d="M41.208 10.8924C40.957 10.6459 40.6477 10.467 40.3089 10.3722C39.9701 10.2775 39.6129 10.2701 39.2705 10.3508C38.8194 10.455 38.3584 10.5109 37.8955 10.5174C36.2379 10.5174 34.6482 9.85897 33.4761 8.68686C32.304 7.51476 31.6455 5.92505 31.6455 4.26745C31.6521 3.8045 31.7079 3.34356 31.8121 2.89245C31.8928 2.55003 31.8854 2.19277 31.7907 1.85398C31.696 1.51519 31.517 1.2059 31.2705 0.954946C31.028 0.693727 30.7225 0.499097 30.3833 0.38967C30.044 0.280243 29.6824 0.259679 29.333 0.329946C27.2595 0.787734 25.3788 1.87694 23.9499 3.44765C22.521 5.01836 21.614 6.99335 21.3538 9.10078C20.2192 8.79849 19.0488 8.65132 17.8746 8.66328C14.8723 8.66157 11.9696 9.74057 9.69729 11.703C7.42501 13.6654 5.93498 16.3801 5.49964 19.3508C3.8042 19.8262 2.33808 20.8991 1.37206 22.3713C0.40604 23.8435 0.00538211 25.6155 0.244087 27.3601C0.482793 29.1047 1.34473 30.704 2.67072 31.8625C3.9967 33.0211 5.69714 33.6608 7.45797 33.6633H26.5621C28.9546 33.6633 31.2491 32.7129 32.9408 31.0211C34.6326 29.3294 35.583 27.0349 35.583 24.6424C35.5911 23.1907 35.2404 21.7594 34.5621 20.4758C36.3513 19.9761 37.9718 19.0016 39.2519 17.6555C40.532 16.3094 41.4239 14.6419 41.833 12.8299C41.9032 12.4805 41.8827 12.1189 41.7732 11.7797C41.6638 11.4404 41.4692 11.135 41.208 10.8924V10.8924ZM26.6246 29.4966H7.45797C6.62917 29.4966 5.83431 29.1674 5.24826 28.5813C4.66221 27.9953 4.33297 27.2004 4.33297 26.3716C4.33297 25.5428 4.66221 24.748 5.24826 24.1619C5.83431 23.5759 6.62917 23.2466 7.45797 23.2466C8.0105 23.2466 8.54041 23.0271 8.93111 22.6364C9.32181 22.2457 9.5413 21.7158 9.5413 21.1633C9.54644 19.6656 9.95512 18.197 10.7243 16.9119C11.4935 15.6268 12.5949 14.5728 13.9124 13.8607C15.23 13.1486 16.7152 12.8048 18.2116 12.8654C19.7081 12.9259 21.1606 13.3887 22.4163 14.2049V14.2049C23.9371 15.1942 25.0873 16.6594 25.6871 18.3716C25.8062 18.7296 26.0203 19.0486 26.3065 19.2944C26.5927 19.5402 26.9403 19.7037 27.3121 19.7674C27.951 19.8167 28.5738 19.9913 29.1452 20.2812C29.7165 20.5712 30.2252 20.9709 30.6421 21.4574C31.059 21.944 31.376 22.5078 31.5749 23.1169C31.7739 23.7259 31.851 24.3682 31.8017 25.007C31.7525 25.6459 31.5779 26.2687 31.2879 26.8401C30.998 27.4114 30.5983 27.9201 30.1118 28.337C29.6252 28.7539 29.0613 29.0709 28.4523 29.2698C27.8432 29.4688 27.201 29.5459 26.5621 29.4966H26.6246ZM31.708 16.7674C31.4168 16.791 31.1242 16.791 30.833 16.7674C30.3523 16.5099 29.8504 16.2938 29.333 16.1216C28.4747 14.2531 27.1731 12.6226 25.5413 11.3716C25.5413 11.1216 25.5413 10.8508 25.5413 10.6008C25.5412 9.69803 25.7368 8.80597 26.1144 7.98599C26.492 7.16601 27.0428 6.43757 27.7288 5.85078C28.0514 8.07339 29.0837 10.1322 30.6718 11.7203C32.2599 13.3084 34.3187 14.3407 36.5413 14.6633C35.9308 15.3532 35.1753 15.8995 34.3289 16.2633C33.4825 16.6271 32.5662 16.7992 31.6455 16.7674H31.708Z" fill="#CA6C6C"/>
</svg>
