<svg width="42" height="42" viewBox="0 0 42 42" fill="none" xmlns="http://www.w3.org/2000/svg">
<path d="M41.2291 38.2727L33.4999 30.606C36.5001 26.8652 37.9531 22.1171 37.5599 17.3379C37.1668 12.5588 34.9576 8.11184 31.3864 4.91155C27.8153 1.71126 23.1537 0.000855312 18.3602 0.132023C13.5667 0.26319 9.00559 2.22596 5.6148 5.61676C2.22401 9.00755 0.261237 13.5686 0.13007 18.3621C-0.0010978 23.1556 1.70931 27.8172 4.9096 31.3884C8.10989 34.9595 12.5568 37.1688 17.336 37.5619C22.1151 37.955 26.8633 36.5021 30.6041 33.5019L38.2708 41.1685C38.4644 41.3638 38.6948 41.5188 38.9487 41.6246C39.2026 41.7303 39.4749 41.7848 39.7499 41.7848C40.0249 41.7848 40.2973 41.7303 40.5511 41.6246C40.805 41.5188 41.0354 41.3638 41.2291 41.1685C41.6046 40.7801 41.8145 40.2609 41.8145 39.7206C41.8145 39.1803 41.6046 38.6612 41.2291 38.2727V38.2727ZM18.9166 33.5019C16.0323 33.5019 13.2127 32.6466 10.8145 31.0441C8.41631 29.4417 6.54712 27.1641 5.44335 24.4993C4.33957 21.8346 4.05077 18.9024 4.61347 16.0735C5.17617 13.2446 6.5651 10.6461 8.60462 8.60657C10.6441 6.56705 13.2426 5.17813 16.0715 4.61542C18.9004 4.05272 21.8326 4.34152 24.4974 5.4453C27.1621 6.54908 29.4398 8.41826 31.0422 10.8165C32.6446 13.2147 33.4999 16.0342 33.4999 18.9185C33.4999 22.7863 31.9635 26.4956 29.2286 29.2305C26.4937 31.9654 22.7843 33.5019 18.9166 33.5019V33.5019Z" fill="#CA6C6C"/>
</svg>
