<svg width="42" height="38" viewBox="0 0 42 38" fill="none" xmlns="http://www.w3.org/2000/svg">
<path d="M37.9999 4.41994C35.7785 2.22141 32.8444 0.889255 29.7271 0.663862C26.6098 0.438468 23.5145 1.33468 20.9999 3.19077C18.3492 1.21918 15.0499 0.325173 11.7664 0.688769C8.48294 1.05236 5.45917 2.64656 3.30403 5.15033C1.1489 7.65409 0.0224695 10.8814 0.151592 14.1825C0.280715 17.4835 1.65579 20.613 3.99992 22.9408L16.4999 35.5449C17.6718 36.7154 19.2603 37.3728 20.9166 37.3728C22.5728 37.3728 24.1614 36.7154 25.3333 35.5449L37.8333 22.9408C39.0644 21.738 40.0456 20.3037 40.7206 18.7204C41.3957 17.1372 41.7511 15.4361 41.7666 13.715C41.7821 11.9939 41.4573 10.2867 40.8109 8.69156C40.1645 7.0964 39.2092 5.64472 37.9999 4.41994V4.41994ZM35.0624 19.9616L22.5624 32.4616C22.3688 32.6569 22.1383 32.8119 21.8845 32.9176C21.6306 33.0234 21.3583 33.0779 21.0833 33.0779C20.8082 33.0779 20.5359 33.0234 20.2821 32.9176C20.0282 32.8119 19.7978 32.6569 19.6041 32.4616L7.10409 19.9616C5.47025 18.2915 4.55536 16.048 4.55536 13.7116C4.55536 11.3752 5.47025 9.13172 7.10409 7.46161C8.769 5.81783 11.0144 4.89612 13.3541 4.89612C15.6937 4.89612 17.9392 5.81783 19.6041 7.46161C19.7978 7.65687 20.0282 7.81186 20.2821 7.91763C20.5359 8.0234 20.8082 8.07785 21.0833 8.07785C21.3583 8.07785 21.6306 8.0234 21.8845 7.91763C22.1383 7.81186 22.3688 7.65687 22.5624 7.46161C24.2724 6.10096 26.4233 5.41728 28.605 5.54097C30.7867 5.66465 32.8466 6.58705 34.3918 8.13224C35.937 9.67743 36.8594 11.7373 36.9831 13.919C37.1068 16.1008 36.4231 18.2517 35.0624 19.9616V19.9616Z" fill="#CA6C6C"/>
</svg>
