<svg width="46" height="46" viewBox="0 0 46 46" fill="none" xmlns="http://www.w3.org/2000/svg">
<path d="M13.458 30.3727C13.07 30.763 12.8522 31.2911 12.8522 31.8415C12.8522 32.3918 13.07 32.9199 13.458 33.3102C13.6517 33.5055 13.8821 33.6605 14.136 33.7662C14.3899 33.872 14.6622 33.9265 14.9372 33.9265C15.2122 33.9265 15.4845 33.872 15.7384 33.7662C15.9923 33.6605 16.2227 33.5055 16.4164 33.3102C16.8044 32.9199 17.0222 32.3918 17.0222 31.8415C17.0222 31.2911 16.8044 30.763 16.4164 30.3727C16.2227 30.1774 15.9923 30.0224 15.7384 29.9167C15.4845 29.8109 15.2122 29.7565 14.9372 29.7565C14.6622 29.7565 14.3899 29.8109 14.136 29.9167C13.8821 30.0224 13.6517 30.1774 13.458 30.3727V30.3727ZM13.458 12.6852C13.07 13.0755 12.8522 13.6036 12.8522 14.154C12.8522 14.7043 13.07 15.2324 13.458 15.6227C13.6517 15.818 13.8821 15.973 14.136 16.0787C14.3899 16.1845 14.6622 16.239 14.9372 16.239C15.2122 16.239 15.4845 16.1845 15.7384 16.0787C15.9923 15.973 16.2227 15.818 16.4164 15.6227C16.8044 15.2324 17.0222 14.7043 17.0222 14.154C17.0222 13.6036 16.8044 13.0755 16.4164 12.6852C16.2227 12.4899 15.9923 12.3349 15.7384 12.2292C15.4845 12.1234 15.2122 12.069 14.9372 12.069C14.6622 12.069 14.3899 12.1234 14.136 12.2292C13.8821 12.3349 13.6517 12.4899 13.458 12.6852ZM23.7705 33.5185C23.3585 33.5185 22.9557 33.6407 22.6131 33.8696C22.2705 34.0986 22.0035 34.4239 21.8458 34.8046C21.6881 35.1853 21.6468 35.6042 21.7272 36.0083C21.8076 36.4124 22.006 36.7837 22.2974 37.075C22.5888 37.3664 22.96 37.5648 23.3641 37.6452C23.7682 37.7256 24.1871 37.6843 24.5678 37.5266C24.9485 37.3689 25.2738 37.1019 25.5028 36.7593C25.7317 36.4167 25.8539 36.0139 25.8539 35.6019C25.868 35.3196 25.8246 35.0375 25.7262 34.7726C25.6279 34.5077 25.4766 34.2655 25.2818 34.0609C25.0869 33.8563 24.8524 33.6935 24.5926 33.5823C24.3328 33.4712 24.0531 33.414 23.7705 33.4144V33.5185ZM11.2705 21.0185C10.8585 21.0185 10.4557 21.1407 10.1131 21.3696C9.7705 21.5986 9.50347 21.9239 9.34579 22.3046C9.18811 22.6853 9.14685 23.1042 9.22724 23.5083C9.30762 23.9124 9.50604 24.2836 9.7974 24.575C10.0888 24.8664 10.46 25.0648 10.8641 25.1452C11.2682 25.2256 11.6871 25.1843 12.0678 25.0266C12.4485 24.8689 12.7738 24.6019 13.0028 24.2593C13.2317 23.9167 13.3539 23.5139 13.3539 23.1019C13.368 22.8196 13.3246 22.5375 13.2262 22.2726C13.1279 22.0077 12.9766 21.7655 12.7818 21.5609C12.5869 21.3563 12.3524 21.1935 12.0926 21.0823C11.8328 20.9712 11.5531 20.914 11.2705 20.9144V21.0185ZM23.7705 8.51854C23.3585 8.51854 22.9557 8.64072 22.6131 8.86964C22.2705 9.09856 22.0035 9.42393 21.8458 9.80461C21.6881 10.1853 21.6468 10.6042 21.7272 11.0083C21.8076 11.4124 22.006 11.7837 22.2974 12.075C22.5888 12.3664 22.96 12.5648 23.3641 12.6452C23.7682 12.7256 24.1871 12.6843 24.5678 12.5266C24.9485 12.3689 25.2738 12.1019 25.5028 11.7593C25.7317 11.4167 25.8539 11.0139 25.8539 10.6019C25.868 10.3196 25.8246 10.0375 25.7262 9.77259C25.6279 9.50768 25.4766 9.26555 25.2818 9.06092C25.0869 8.8563 24.8524 8.69346 24.5926 8.5823C24.3328 8.47115 24.0531 8.41402 23.7705 8.41437V8.51854ZM31.1455 12.7894C30.8529 13.0802 30.6533 13.4514 30.5719 13.8559C30.4905 14.2604 30.531 14.6799 30.6884 15.0613C30.8457 15.4427 31.1127 15.7688 31.4556 15.9983C31.7984 16.2277 32.2017 16.3502 32.6143 16.3502C33.0269 16.3502 33.4301 16.2277 33.773 15.9983C34.1159 15.7688 34.3829 15.4427 34.5402 15.0613C34.6975 14.6799 34.7381 14.2604 34.6567 13.8559C34.5753 13.4514 34.3756 13.0802 34.083 12.7894C33.7066 12.3872 33.1863 12.1505 32.6358 12.1309C32.0853 12.1114 31.5495 12.3107 31.1455 12.6852V12.7894ZM44.2705 12.7894C42.3658 8.98166 39.4381 5.77983 35.8155 3.54291C32.193 1.306 28.0189 0.12246 23.7614 0.125004C19.5039 0.127548 15.3312 1.31608 11.7113 3.55732C8.09147 5.79856 5.16753 9.00389 3.26737 12.8139C1.36722 16.6239 0.565999 20.8879 0.95355 25.1277C1.3411 29.3676 2.9021 33.4156 5.46151 36.818C8.02092 40.2203 11.4775 42.8424 15.4437 44.3903C19.41 45.9381 23.7289 46.3504 27.9164 45.581C28.9694 45.3829 29.9723 44.9768 30.8666 44.3866C31.7609 43.7964 32.5285 43.0339 33.1247 42.1435C33.7671 41.1756 34.2103 40.0895 34.4285 38.9484C34.6467 37.8074 34.6355 36.6344 34.3955 35.4977C34.2643 34.8108 34.1946 34.1136 34.1872 33.4144C34.1963 31.3955 34.7919 29.4229 35.9015 27.7363C37.0111 26.0497 38.5869 24.7219 40.4372 23.9144C41.4348 23.4677 42.3304 22.8213 43.0685 22.0151C43.8066 21.2089 44.3717 20.2599 44.7289 19.2269C45.0901 18.1712 45.2357 17.0538 45.157 15.9408C45.0782 14.8278 44.7768 13.742 44.2705 12.7477V12.7894ZM40.7289 17.8727C40.5511 18.3713 40.2751 18.8291 39.9173 19.2192C39.5594 19.6092 39.127 19.9236 38.6455 20.1435C36.083 21.2906 33.906 23.153 32.3761 25.5071C30.8461 27.8611 30.0282 30.6068 30.0205 33.4144C30.0236 34.3937 30.1213 35.3705 30.3122 36.331C30.4394 36.9181 30.4478 37.5247 30.3369 38.1151C30.226 38.7055 29.998 39.2677 29.6664 39.7685C29.3858 40.2069 29.0165 40.5816 28.5823 40.8687C28.1482 41.1557 27.6588 41.3487 27.1455 41.4352C26.0327 41.6443 24.9028 41.7489 23.7705 41.7477C21.2584 41.7489 18.7716 41.2453 16.4579 40.2668C14.1442 39.2882 12.0507 37.8547 10.3017 36.0513C8.55277 34.248 7.18404 32.1116 6.27682 29.769C5.3696 27.4263 4.94238 24.9253 5.02054 22.4144C5.18223 17.7327 7.08097 13.2789 10.3469 9.92054C13.6127 6.56223 18.0119 4.53996 22.6872 4.2477H23.7497C27.2409 4.24858 30.6624 5.22414 33.6291 7.06451C36.5958 8.90488 38.9897 11.537 40.5414 14.6644C41.019 15.6539 41.0863 16.792 40.7289 17.831V17.8727ZM23.7705 20.9144C23.3585 20.9144 22.9557 21.0366 22.6131 21.2655C22.2705 21.4944 22.0035 21.8198 21.8458 22.2004C21.6881 22.5811 21.6468 23 21.7272 23.4041C21.8076 23.8083 22.006 24.1795 22.2974 24.4708C22.5888 24.7622 22.96 24.9606 23.3641 25.041C23.7682 25.1214 24.1871 25.0801 24.5678 24.9225C24.9485 24.7648 25.2738 24.4977 25.5028 24.1551C25.7317 23.8125 25.8539 23.4097 25.8539 22.9977C25.8539 22.4452 25.6344 21.9153 25.2437 21.5246C24.853 21.1339 24.3231 20.9144 23.7705 20.9144Z" fill="#CA6C6C"/>
</svg>
