<svg width="42" height="38" viewBox="0 0 42 38" fill="none" xmlns="http://www.w3.org/2000/svg">
<path d="M35.5837 0.25H6.41699C4.75939 0.25 3.16968 0.90848 1.99758 2.08058C0.825473 3.25269 0.166992 4.8424 0.166992 6.5V23.1667C0.166992 24.8243 0.825473 26.414 1.99758 27.5861C3.16968 28.7582 4.75939 29.4167 6.41699 29.4167H18.917V33.5833H10.5837C10.0311 33.5833 9.50122 33.8028 9.11052 34.1935C8.71982 34.5842 8.50033 35.1141 8.50033 35.6667C8.50033 36.2192 8.71982 36.7491 9.11052 37.1398C9.50122 37.5305 10.0311 37.75 10.5837 37.75H31.417C31.9695 37.75 32.4994 37.5305 32.8901 37.1398C33.2808 36.7491 33.5003 36.2192 33.5003 35.6667C33.5003 35.1141 33.2808 34.5842 32.8901 34.1935C32.4994 33.8028 31.9695 33.5833 31.417 33.5833H23.0837V29.4167H35.5837C37.2413 29.4167 38.831 28.7582 40.0031 27.5861C41.1752 26.414 41.8337 24.8243 41.8337 23.1667V6.5C41.8337 4.8424 41.1752 3.25269 40.0031 2.08058C38.831 0.90848 37.2413 0.25 35.5837 0.25ZM37.667 23.1667C37.667 23.7192 37.4475 24.2491 37.0568 24.6398C36.6661 25.0305 36.1362 25.25 35.5837 25.25H6.41699C5.86446 25.25 5.33455 25.0305 4.94385 24.6398C4.55315 24.2491 4.33366 23.7192 4.33366 23.1667V6.5C4.33366 5.94747 4.55315 5.41756 4.94385 5.02686C5.33455 4.63616 5.86446 4.41667 6.41699 4.41667H35.5837C36.1362 4.41667 36.6661 4.63616 37.0568 5.02686C37.4475 5.41756 37.667 5.94747 37.667 6.5V23.1667Z" fill="#CA6C6C"/>
</svg>
