<svg width="42" height="42" viewBox="0 0 42 42" fill="none" xmlns="http://www.w3.org/2000/svg">
<path d="M11.5833 29.3307C12.4121 29.3307 13.207 29.0015 13.793 28.4154C14.3791 27.8294 14.7083 27.0345 14.7083 26.2057C14.7185 26.1018 14.7185 25.9972 14.7083 25.8932L20.5208 20.0807H21H21.4792L24.8333 23.4349C24.8333 23.4349 24.8333 23.5391 24.8333 23.6016C24.8333 24.4304 25.1626 25.2252 25.7486 25.8113C26.3347 26.3973 27.1295 26.7266 27.9583 26.7266C28.7871 26.7266 29.582 26.3973 30.168 25.8113C30.7541 25.2252 31.0833 24.4304 31.0833 23.6016V23.4349L38.6667 15.7891C39.2847 15.7891 39.8889 15.6058 40.4028 15.2624C40.9167 14.919 41.3173 14.431 41.5538 13.8599C41.7903 13.2889 41.8522 12.6606 41.7316 12.0544C41.611 11.4482 41.3134 10.8914 40.8764 10.4544C40.4393 10.0173 39.8825 9.71969 39.2763 9.59911C38.6701 9.47853 38.0418 9.54042 37.4708 9.77694C36.8998 10.0135 36.4117 10.414 36.0683 10.9279C35.7249 11.4418 35.5417 12.046 35.5417 12.6641C35.5315 12.768 35.5315 12.8726 35.5417 12.9766L28.0208 20.4974H27.6875L24.0833 16.8307C24.0833 16.0019 23.7541 15.2071 23.168 14.621C22.582 14.035 21.7871 13.7057 20.9583 13.7057C20.1295 13.7057 19.3347 14.035 18.7486 14.621C18.1626 15.2071 17.8333 16.0019 17.8333 16.8307L11.5833 23.0807C10.7545 23.0807 9.95968 23.41 9.37362 23.996C8.78757 24.5821 8.45833 25.3769 8.45833 26.2057C8.45833 27.0345 8.78757 27.8294 9.37362 28.4154C9.95968 29.0015 10.7545 29.3307 11.5833 29.3307V29.3307ZM39.7083 37.6641H4.29167V2.2474C4.29167 1.69486 4.07217 1.16496 3.68147 0.774257C3.29077 0.383556 2.76087 0.164063 2.20833 0.164062C1.6558 0.164063 1.12589 0.383556 0.735194 0.774257C0.344493 1.16496 0.125 1.69486 0.125 2.2474V39.7474C0.125 40.2999 0.344493 40.8298 0.735194 41.2205C1.12589 41.6112 1.6558 41.8307 2.20833 41.8307H39.7083C40.2609 41.8307 40.7908 41.6112 41.1815 41.2205C41.5722 40.8298 41.7917 40.2999 41.7917 39.7474C41.7917 39.1949 41.5722 38.665 41.1815 38.2743C40.7908 37.8836 40.2609 37.6641 39.7083 37.6641Z" fill="#CA6C6C"/>
</svg>
